# xmcd CD database file
#
# Track frame offsets:
#	150
#	21248
#	38170
#	56261
#	77359
#	94281
#
# Disc length: 1496 seconds
#
# Revision: 1
# Processed by: cddbd v1.5.2PL0 Copyright (c) Steve Scherf et al.
# Submitted via: CDex 1.70beta3
#
DISCID=3c05d606
DTITLE=9nine - With You - With Me
DYEAR=2014
DGENRE=SonyMusic
TTITLE0=With You - With Me
TTITLE1=ポジティ部
TTITLE2=Party9
TTITLE3=With You - With Me （Instrumental）
TTITLE4=ポジティ部 （Instrumental）
TTITLE5=Party9 （Instrumental）
EXTD=YEAR: 2014
EXTT0=
EXTT1=
EXTT2=
EXTT3=
EXTT4=
EXTT5=
PLAYORDER=
